<?xml version='1.0' encoding='utf-8'?>
<mlt title="Anonymous Submission" version="6.2.0" root="/home/luaks" producer="main bin" LC_NUMERIC="en_US.utf8">
 <profile width="1920" frame_rate_den="1" height="1080" display_aspect_num="16" display_aspect_den="9" frame_rate_num="25" colorspace="709" sample_aspect_den="1" description="HD 1080p 25 fps" progressive="1" sample_aspect_num="1"/>
 <producer id="1" title="Anonymous Submission" out="2230" in="0">
  <property name="length">00:01:29:06</property>
  <property name="eof">pause</property>
  <property name="resource">fh/bic2/kommunikationsfoo/Linux/video/win95-2016-04-21T08-20-42-850544000Z.webm</property>
  <property name="audio_index">-1</property>
  <property name="video_index">0</property>
  <property name="mute_on_pause">1</property>
  <property name="mlt_service">avformat-novalidate</property>
  <property name="meta.media.nb_streams">1</property>
  <property name="meta.media.0.stream.type">video</property>
  <property name="meta.media.0.stream.frame_rate">30</property>
  <property name="meta.media.0.stream.sample_aspect_ratio">1</property>
  <property name="meta.media.0.codec.width">800</property>
  <property name="meta.media.0.codec.height">600</property>
  <property name="meta.media.0.codec.rotate">0</property>
  <property name="meta.media.0.codec.frame_rate">1000</property>
  <property name="meta.media.0.codec.pix_fmt">yuv420p</property>
  <property name="meta.media.0.codec.sample_aspect_ratio">0</property>
  <property name="meta.media.0.codec.colorspace">601</property>
  <property name="meta.media.0.codec.name">vp8</property>
  <property name="meta.media.0.codec.long_name">On2 VP8</property>
  <property name="meta.media.0.codec.bit_rate">0</property>
  <property name="meta.attr.0.stream.language.markup">eng</property>
  <property name="meta.attr.encoder.markup">vpxencv1.5.0</property>
  <property name="seekable">1</property>
  <property name="meta.media.sample_aspect_num">1</property>
  <property name="meta.media.sample_aspect_den">1</property>
  <property name="aspect_ratio">1</property>
  <property name="meta.media.frame_rate_num">30</property>
  <property name="meta.media.frame_rate_den">1</property>
  <property name="meta.media.colorspace">601</property>
  <property name="meta.media.color_trc">2</property>
  <property name="meta.media.width">800</property>
  <property name="meta.media.height">600</property>
  <property name="meta.media.top_field_first">0</property>
  <property name="meta.media.progressive">1</property>
  <property name="kdenlive:file_size">2069653</property>
  <property name="kdenlive:file_hash">0208646e2303431673de2573144369ab</property>
  <property name="global_feed">1</property>
 </producer>
 <producer id="2" title="Anonymous Submission" out="124" in="0">
  <property name="length">00:00:05:00</property>
  <property name="eof">pause</property>
  <property name="resource">fh/bic2/kommunikationsfoo/Linux/video/001delkey.gif</property>
  <property name="ttl">25</property>
  <property name="aspect_ratio">1</property>
  <property name="progressive">1</property>
  <property name="seekable">1</property>
  <property name="loop">1</property>
  <property name="meta.media.width">620</property>
  <property name="meta.media.height">386</property>
  <property name="mlt_service">pixbuf</property>
  <property name="kdenlive:file_size">21209</property>
  <property name="kdenlive:file_hash">ec6dc79669af654833d94feeaf137a2b</property>
  <property name="global_feed">1</property>
 </producer>
 <producer id="3" title="Anonymous Submission" out="124" in="0">
  <property name="length">00:00:05:00</property>
  <property name="eof">pause</property>
  <property name="resource">fh/bic2/kommunikationsfoo/Linux/video/bios1.png</property>
  <property name="ttl">25</property>
  <property name="aspect_ratio">1</property>
  <property name="progressive">1</property>
  <property name="seekable">1</property>
  <property name="loop">1</property>
  <property name="meta.media.width">620</property>
  <property name="meta.media.height">386</property>
  <property name="mlt_service">pixbuf</property>
  <property name="kdenlive:file_size">39321</property>
  <property name="kdenlive:file_hash">f341f0c2e7673cd8b63dc0e3be884c10</property>
  <property name="global_feed">1</property>
 </producer>
 <producer id="4" title="Anonymous Submission" out="131" in="0">
  <property name="length">00:00:05:07</property>
  <property name="eof">pause</property>
  <property name="resource">fh/bic2/kommunikationsfoo/Linux/video/bios2.png</property>
  <property name="ttl">25</property>
  <property name="aspect_ratio">1</property>
  <property name="progressive">1</property>
  <property name="seekable">1</property>
  <property name="loop">1</property>
  <property name="meta.media.width">620</property>
  <property name="meta.media.height">386</property>
  <property name="mlt_service">pixbuf</property>
  <property name="kdenlive:file_size">50606</property>
  <property name="kdenlive:file_hash">1bf9200e1e44004f05941ddb226c34b9</property>
  <property name="global_feed">1</property>
 </producer>
 <producer id="5" title="Anonymous Submission" out="124" in="0">
  <property name="length">00:00:05:00</property>
  <property name="eof">pause</property>
  <property name="resource">fh/bic2/kommunikationsfoo/Linux/video/bios3.png</property>
  <property name="ttl">25</property>
  <property name="aspect_ratio">1</property>
  <property name="progressive">1</property>
  <property name="seekable">1</property>
  <property name="loop">1</property>
  <property name="meta.media.width">620</property>
  <property name="meta.media.height">386</property>
  <property name="mlt_service">pixbuf</property>
  <property name="kdenlive:file_size">61821</property>
  <property name="kdenlive:file_hash">628355ed3b02be990ff36d5fd744a487</property>
  <property name="global_feed">1</property>
 </producer>
 <producer id="7" title="Anonymous Submission" out="163" in="0">
  <property name="length">00:00:06:14</property>
  <property name="eof">pause</property>
  <property name="resource">fh/bic2/kommunikationsfoo/Linux/video/bluescreen.png</property>
  <property name="ttl">25</property>
  <property name="aspect_ratio">1</property>
  <property name="progressive">1</property>
  <property name="seekable">1</property>
  <property name="loop">1</property>
  <property name="meta.media.width">720</property>
  <property name="meta.media.height">400</property>
  <property name="mlt_service">pixbuf</property>
  <property name="kdenlive:file_size">5703</property>
  <property name="kdenlive:file_hash">6eaed4e9ff28f43a58fc210c5db2d218</property>
  <property name="global_feed">1</property>
 </producer>
 <producer id="8" title="Anonymous Submission" out="124" in="0">
  <property name="length">00:00:05:00</property>
  <property name="eof">pause</property>
  <property name="resource">fh/bic2/kommunikationsfoo/Linux/video/Screenshot_20160504_195216.png</property>
  <property name="ttl">25</property>
  <property name="aspect_ratio">1</property>
  <property name="progressive">1</property>
  <property name="seekable">1</property>
  <property name="loop">1</property>
  <property name="meta.media.width">2560</property>
  <property name="meta.media.height">1440</property>
  <property name="mlt_service">pixbuf</property>
  <property name="kdenlive:file_size">87226</property>
  <property name="kdenlive:file_hash">f321ba337066aacff6c4db71acb0fda4</property>
  <property name="global_feed">1</property>
 </producer>
 <producer id="9" out="124" in="0">
  <property name="length">00:00:05:00</property>
  <property name="eof">pause</property>
  <property name="resource">Downloads/linux_foo/img/last-part.png</property>
  <property name="ttl">25</property>
  <property name="aspect_ratio">1</property>
  <property name="progressive">1</property>
  <property name="seekable">1</property>
  <property name="loop">1</property>
  <property name="meta.media.width">1920</property>
  <property name="meta.media.height">1090</property>
  <property name="mlt_service">pixbuf</property>
  <property name="kdenlive:file_size">326683</property>
  <property name="kdenlive:file_size">326683</property>
  <property name="kdenlive:file_hash">43288f4a60229ca4e07cc450edfb1f8e</property>
  <property name="kdenlive:file_hash">43288f4a60229ca4e07cc450edfb1f8e</property>
 </producer>
 <playlist id="main bin">
  <property name="kdenlive:customeffects">&lt;customeffects/>
</property>
  <property name="kdenlive:docproperties.documentid">1461227042600</property>
  <property name="kdenlive:docproperties.enableproxy">0</property>
  <property name="kdenlive:docproperties.generateimageproxy">0</property>
  <property name="kdenlive:docproperties.generateproxy">0</property>
  <property name="kdenlive:docproperties.kdenliveversion">16.04.0</property>
  <property name="kdenlive:docproperties.position">1131</property>
  <property name="kdenlive:docproperties.profile">atsc_1080p_25</property>
  <property name="kdenlive:docproperties.projectfolder">kdenlive</property>
  <property name="kdenlive:docproperties.proxyextension">mpg</property>
  <property name="kdenlive:docproperties.proxyimageminsize">2000</property>
  <property name="kdenlive:docproperties.proxyminsize">1000</property>
  <property name="kdenlive:docproperties.proxyparams">-s 640x480 -g 5 -qscale 6 -ab 128k -vcodec mpeg2video -acodec mp2</property>
  <property name="kdenlive:docproperties.version">0.94</property>
  <property name="kdenlive:docproperties.verticalzoom">1</property>
  <property name="kdenlive:docproperties.zonein">0</property>
  <property name="kdenlive:docproperties.zoneout">2231</property>
  <property name="kdenlive:docproperties.zoom">4</property>
  <property name="kdenlive:documentnotes"/>
  <property name="kdenlive:clipgroups">&lt;groups/>
</property>
  <property name="xml_retain">1</property>
  <entry out="2230" producer="1" in="0"/>
  <entry out="124" producer="2" in="0"/>
  <entry out="124" producer="3" in="0"/>
  <entry out="124" producer="4" in="0"/>
  <entry out="124" producer="5" in="0"/>
  <entry out="124" producer="7" in="0"/>
  <entry out="124" producer="8" in="0"/>
  <entry out="124" producer="9" in="0"/>
 </playlist>
 <producer id="black" out="500" in="0">
  <property name="length">15000</property>
  <property name="eof">pause</property>
  <property name="resource">black</property>
  <property name="aspect_ratio">0</property>
  <property name="mlt_service">colour</property>
 </producer>
 <playlist id="black_track">
  <entry out="1149" producer="black" in="0"/>
 </playlist>
 <playlist id="playlist1">
  <property name="kdenlive:audio_track">1</property>
  <property name="kdenlive:track_name">Audio 2</property>
 </playlist>
 <playlist id="playlist2">
  <property name="kdenlive:audio_track">1</property>
  <property name="kdenlive:track_name">Audio 1</property>
 </playlist>
 <playlist id="playlist3">
  <property name="kdenlive:track_name">Video 3</property>
 </playlist>
 <producer id="1_playlist5" title="Anonymous Submission" out="2230" in="0">
  <property name="length">00:01:29:06</property>
  <property name="eof">pause</property>
  <property name="resource">fh/bic2/kommunikationsfoo/Linux/video/win95-2016-04-21T08-20-42-850544000Z.webm</property>
  <property name="audio_index">-1</property>
  <property name="video_index">0</property>
  <property name="mute_on_pause">1</property>
  <property name="mlt_service">avformat-novalidate</property>
  <property name="seekable">1</property>
  <property name="aspect_ratio">1</property>
  <property name="kdenlive:file_size">2069653</property>
  <property name="kdenlive:file_hash">0208646e2303431673de2573144369ab</property>
  <property name="global_feed">1</property>
  <property name="xml">was here</property>
  <property name="meta.media.nb_streams">1</property>
  <property name="meta.media.0.stream.type">video</property>
  <property name="meta.media.0.stream.frame_rate">30</property>
  <property name="meta.media.0.stream.sample_aspect_ratio">1</property>
  <property name="meta.media.0.codec.width">800</property>
  <property name="meta.media.0.codec.height">600</property>
  <property name="meta.media.0.codec.rotate">0</property>
  <property name="meta.media.0.codec.frame_rate">1000</property>
  <property name="meta.media.0.codec.pix_fmt">yuv420p</property>
  <property name="meta.media.0.codec.sample_aspect_ratio">0</property>
  <property name="meta.media.0.codec.colorspace">601</property>
  <property name="meta.media.0.codec.name">vp8</property>
  <property name="meta.media.0.codec.long_name">On2 VP8</property>
  <property name="meta.media.0.codec.bit_rate">0</property>
  <property name="meta.attr.0.stream.language.markup">eng</property>
  <property name="meta.attr.encoder.markup">vpxencv1.5.0</property>
  <property name="meta.media.sample_aspect_num">1</property>
  <property name="meta.media.sample_aspect_den">1</property>
  <property name="meta.media.frame_rate_num">30</property>
  <property name="meta.media.frame_rate_den">1</property>
  <property name="meta.media.colorspace">601</property>
  <property name="meta.media.color_trc">2</property>
  <property name="meta.media.width">800</property>
  <property name="meta.media.height">600</property>
  <property name="meta.media.top_field_first">0</property>
  <property name="meta.media.progressive">1</property>
 </producer>
 <playlist id="playlist4">
  <property name="kdenlive:track_name">Video 2</property>
  <blank length="781"/>
  <entry out="1864" producer="1_playlist5" in="1502"/>
 </playlist>
 <playlist id="playlist5">
  <property name="kdenlive:track_name">Video 1</property>
  <entry out="162" producer="7" in="0"/>
  <blank length="26"/>
  <entry out="267" producer="1_playlist5" in="260"/>
  <blank length="10"/>
  <entry out="267" producer="1_playlist5" in="260"/>
  <blank length="9"/>
  <entry out="267" producer="1_playlist5" in="260"/>
  <blank length="9"/>
  <entry out="267" producer="1_playlist5" in="260"/>
  <blank length="10"/>
  <entry out="267" producer="1_playlist5" in="260"/>
  <blank length="2"/>
  <entry out="113" producer="3" in="86"/>
  <entry out="130" producer="4" in="106"/>
  <entry out="114" producer="5" in="78"/>
  <blank length="3"/>
  <entry out="267" producer="1_playlist5" in="260"/>
  <blank length="6"/>
  <entry out="267" producer="1_playlist5" in="260"/>
  <blank length="15"/>
  <entry out="194" producer="1_playlist5" in="76"/>
  <entry out="1330" producer="1_playlist5" in="1068"/>
  <blank length="350"/>
  <entry out="18" producer="9" in="0"/>
 </playlist>
 <tractor id="maintractor" title="Anonymous Submission" global_feed="1" out="1149" in="0">
  <track producer="black_track"/>
  <track producer="playlist1" hide="video"/>
  <track producer="playlist2" hide="video"/>
  <track producer="playlist3"/>
  <track producer="playlist4"/>
  <track producer="playlist5"/>
  <transition id="transition0">
   <property name="a_track">0</property>
   <property name="b_track">1</property>
   <property name="mlt_service">mix</property>
   <property name="always_active">1</property>
   <property name="combine">1</property>
   <property name="internal_added">237</property>
  </transition>
  <transition id="transition1">
   <property name="a_track">0</property>
   <property name="b_track">2</property>
   <property name="mlt_service">mix</property>
   <property name="always_active">1</property>
   <property name="combine">1</property>
   <property name="internal_added">237</property>
  </transition>
  <transition id="transition2">
   <property name="a_track">0</property>
   <property name="b_track">3</property>
   <property name="mlt_service">mix</property>
   <property name="always_active">1</property>
   <property name="combine">1</property>
   <property name="internal_added">237</property>
  </transition>
  <transition id="transition3">
   <property name="a_track">0</property>
   <property name="b_track">4</property>
   <property name="mlt_service">mix</property>
   <property name="always_active">1</property>
   <property name="combine">1</property>
   <property name="internal_added">237</property>
  </transition>
  <transition id="transition4">
   <property name="a_track">0</property>
   <property name="b_track">5</property>
   <property name="mlt_service">mix</property>
   <property name="always_active">1</property>
   <property name="combine">1</property>
   <property name="internal_added">237</property>
  </transition>
 </tractor>
</mlt>
